<svg width="210mm" height="297mm" viewBox="0 0 210 297">
    <g transform="translate(-224.84 -55.815)" stroke="#000">
    <path d="m227.02 76.564 17.954 86.113h103.59l14.877-86.113zm61.013 8.5846 18.644 0.43164c2.3699 0.05486 13.398-0.23294 13.371 2.1582l-0.32092 29.154c-6e-3 0.51835-2.0154 8.6546-4.3858 8.6327l-35.117-0.32373c-2.3704-0.0218-4.392-4.7399-4.5998-7.122l-2.6743-30.664c-0.20774-2.3821 12.713-2.321 15.083-2.2661z" fill="#cdbb86" stroke-width=".79375"/>
    <g transform="matrix(.81935 0 0 .81914 221.13 57.872)">
    <path transform="scale(.26458)" d="m248.84 103.77c-17.542 0-30.611 8.92-29.304 20 14.552 122.85 43.458 368.37 43.458 368.37 1.3071 11.08 11.279 20 22.359 20 42.426 0.0378 127.14 0 127.14 0 11.08 0 21.077-8.92 22.414-20 14.86-122.78 44.469-368.37 44.469-368.37 1.3376-11.08-11.708-20-29.249-20zm36.707 28.572c44.869 0.0378 134.41 0 134.41 0 17.09 0 29.998 8.92 28.943 20-3.7267 39.741-11.339 119.08-11.339 119.08-1.055 11.08-13.636 20-28.208 20-38.161 0.0378-114.61 0-114.61 0-14.572 0-27.074-8.92-28.031-20-3.3743-39.664-10.283-119.08-10.283-119.08-0.95679-11.08 12.031-20 29.12-20z" fill="#ddcba1" stroke-width="3.6619"/>
    <path x="76.067703" y="35.015823" width="33.639866" height="42.091316" rx="5.291667" ry="5.291667" d="m75.552 35.016c11.872 0.01 35.562 0 35.562 0 4.5216 0 7.937 2.3601 7.6579 5.2917-0.98604 10.515-3 31.508-3 31.508-0.27914 2.9316-3.6078 5.2917-7.4634 5.2917-10.097 0.01-30.324 0-30.324 0-3.8556 0-7.1634-2.3601-7.4165-5.2917-0.8928-10.495-2.7208-31.508-2.7208-31.508-0.25315-2.9316 3.1832-5.2917 7.7048-5.2917z" fill="#92b5b1" opacity=".25" stroke-width=".96888"/>
    <path x="99.313248" y="82.829811" width="9.2604017" height="3.9157202" rx="0.72834653" ry="0.24613969" d="m102.31 82.83c3.3536 0.01 10.022 0 10.022 0 0.51822 0 0.92564 0.10978 0.91349 0.24614-0.0898 1.1514-0.30501 3.4234-0.30501 3.4234-0.0122 0.13636-0.43226 0.24614-0.94196 0.24614-3.2744 0.01-9.8574 0-9.8574 0-0.50969 0-0.91573-0.10978-0.91039-0.24614 0.0569-1.1314 0.1339-3.4234 0.1339-3.4234 5e-3 -0.13636 0.42682-0.24614 0.94504-0.24614z" fill="#5a5c55" stroke-width=".96888"/>
    <path d="m67.578 113.2c0.51592 4.2783 1.5103 12.802 1.5103 12.802 0.12671 1.0741 1.4569 1.9388 2.9825 1.9388 13.519 0.01 40.52 0 40.52 0 1.5256 0 2.8582-0.86478 2.9878-1.9388 0.52457-4.2584 1.5455-12.802 1.5455-12.802h-49.546z" fill="#958b75" stroke-width=".96888"/>
    <path x="76.067703" y="35.015823" width="33.639866" height="42.091316" rx="5.291667" ry="5.291667" d="m75.552 35.016c11.872 0.01 35.562 0 35.562 0 4.5216 0 7.937 2.3601 7.6579 5.2917-0.98604 10.515-3 31.508-3 31.508-0.27914 2.9316-3.6078 5.2917-7.4634 5.2917-10.097 0.01-30.324 0-30.324 0-3.8556 0-7.1634-2.3601-7.4165-5.2917-0.8928-10.495-2.7208-31.508-2.7208-31.508-0.25315-2.9316 3.1832-5.2917 7.7048-5.2917z" fill="none" stroke-width=".96888"/>
    </g>
    <path d="m290.22 57.662c-1.5873 1e-3 -3.1708 0.02099-4.749 0.05673h-1.1911v0.03175c-25.428 0.72146-49.051 6.0891-57.506 18.669h63.757v-0.0042h10.458v0.0042h63.757c-8.3318-12.397-31.395-17.791-56.399-18.635v-0.06561h-2.2983c-1.5782-0.03573-3.1617-0.05574-4.749-0.05673-0.10351-6.5e-5 -0.20726 0.0017-0.31079 0.0017v0.05503h-10.458v-0.05503c-0.10353-8.1e-5 -0.20729-0.0017-0.31079-0.0017z" fill="#ddcba1" stroke-width=".79375" />
    <rect x="225.54" y="76.443" width="139.19" height="1.6255" fill="#cdbb86" stroke-width=".79375"/>
    </g>
</svg>
